<svg width="505" height="505" viewBox="0 0 505 505" fill="none" xmlns="http://www.w3.org/2000/svg">
<g clip-path="url(#clip0_726_83)">
<path d="M260.905 248.096H238.924C235.643 248.096 233.565 250.173 233.565 252.47L233.564 323.555C233.564 326.508 237.063 328.038 240.672 328.038C244.172 328.038 247.781 326.508 247.781 323.555V298.183H260.03C274.465 298.183 285.73 291.294 285.73 273.358V272.702C285.73 254.767 274.793 248.096 260.905 248.096ZM271.514 274.451C271.514 282.981 267.14 287.028 260.031 287.028H247.782V260.563H260.031C267.14 260.563 271.514 264.609 271.514 273.139V274.451Z" fill="#0038A8"/>
<path d="M414.028 135.195C407.406 97.0365 387.247 62.3393 357.262 37.4955C326.872 12.3154 288.335 -0.962669 248.76 0.0542417C205.69 1.18162 165.557 18.7413 135.753 49.4992C105.957 80.2481 89.6501 120.916 89.8336 164.01C90.022 208.178 108.385 250.801 140.296 281.331L147.06 314.222C147.441 316.078 148.544 317.705 150.126 318.747C151.708 319.789 153.639 320.16 155.494 319.778C157.349 319.397 158.977 318.294 160.019 316.712C161.061 315.13 161.431 313.199 161.05 311.344L153.833 276.245C153.534 274.79 152.788 273.464 151.7 272.453C121.193 244.09 104.295 205.556 104.118 163.949C103.95 124.607 118.828 87.4918 146.011 59.4384C173.2 31.3802 209.823 15.3612 249.134 14.3324C285.247 13.3865 320.423 25.5184 348.149 48.4941C375.516 71.1699 393.914 102.828 399.955 137.637C400.115 138.561 400.456 139.444 400.958 140.237C401.459 141.029 402.112 141.715 402.879 142.255C403.646 142.795 404.512 143.179 405.427 143.384C406.342 143.59 407.288 143.613 408.212 143.452C409.136 143.292 410.02 142.951 410.812 142.449C411.604 141.948 412.29 141.295 412.83 140.528C413.37 139.761 413.754 138.896 413.959 137.981C414.165 137.065 414.188 136.119 414.028 135.195ZM408.933 176.219C408.003 176.1 407.058 176.166 406.153 176.412C405.248 176.658 404.401 177.079 403.659 177.653C402.917 178.227 402.295 178.941 401.829 179.755C401.363 180.569 401.062 181.467 400.943 182.397C396.548 216.754 380.079 248.737 354.571 272.452C353.482 273.463 352.737 274.789 352.438 276.244L332.003 375.624C327.898 395.587 310.126 410.076 289.746 410.076H216.524C196.144 410.076 178.372 395.587 174.267 375.624L170.48 357.21C170.099 355.354 168.996 353.727 167.414 352.685C165.833 351.642 163.902 351.271 162.047 351.653C160.192 352.034 158.564 353.137 157.522 354.718C156.48 356.3 156.109 358.231 156.49 360.086L160.277 378.5C165.737 405.056 189.367 424.334 216.475 424.357V490.417C216.475 498.458 223.016 505 231.058 505H275.212C283.254 505 289.795 498.459 289.795 490.417V424.357C316.902 424.334 340.533 405.056 345.993 378.5L365.974 281.329C392.969 255.511 410.388 221.113 415.11 184.208C415.35 182.329 414.834 180.433 413.676 178.935C412.517 177.437 410.812 176.46 408.933 176.219ZM275.512 490.419C275.512 490.498 275.48 490.575 275.424 490.631C275.368 490.687 275.292 490.719 275.212 490.719H231.058C230.978 490.719 230.902 490.687 230.846 490.631C230.79 490.575 230.758 490.499 230.758 490.419V424.36H275.512V490.419Z" fill="#0038A8"/>
<path d="M253.135 39.6703C184.966 39.6703 129.508 95.1299 129.508 163.298C129.508 165.192 130.26 167.009 131.599 168.348C132.939 169.687 134.755 170.439 136.649 170.439H369.621C370.559 170.44 371.487 170.255 372.354 169.896C373.221 169.537 374.008 169.011 374.671 168.348C375.334 167.685 375.86 166.898 376.219 166.031C376.578 165.165 376.763 164.236 376.763 163.298C376.763 95.1299 321.303 39.6703 253.135 39.6703ZM218.544 156.157C225.769 145.221 237.823 138.245 251.411 137.681C266.027 137.063 279.755 144.36 287.675 156.157H218.544ZM303.962 156.157C296.413 139.546 281.019 127.684 263.31 124.335L281.191 79.6169C281.539 78.7461 281.713 77.8152 281.701 76.8774C281.69 75.9396 281.493 75.0133 281.124 74.1513C280.754 73.2894 280.219 72.5087 279.547 71.8538C278.876 71.1989 278.082 70.6826 277.211 70.3345C276.34 69.9862 275.41 69.813 274.472 69.8245C273.534 69.8361 272.608 70.0322 271.746 70.4018C270.884 70.7714 270.103 71.3071 269.448 71.9784C268.793 72.6497 268.277 73.4435 267.929 74.3143L248.228 123.584C227.973 125.345 210.584 137.754 202.299 156.157H144.021C147.712 99.1808 195.241 53.9544 253.135 53.9544C311.029 53.9544 358.558 99.1808 362.249 156.157H303.962ZM300.365 239.393C287.75 226.777 270.977 219.83 253.136 219.83C235.294 219.83 218.521 226.778 205.906 239.393C193.29 252.008 186.343 268.782 186.343 286.623C186.343 304.464 193.291 321.237 205.906 333.852C218.928 346.874 236.031 353.384 253.136 353.384C270.24 353.384 287.344 346.873 300.365 333.852C312.982 321.237 319.928 304.464 319.928 286.623C319.928 268.782 312.981 252.008 300.365 239.393ZM290.265 323.753C269.792 344.227 236.479 344.227 216.005 323.753C206.088 313.835 200.625 300.649 200.625 286.623C200.625 272.597 206.088 259.411 216.005 249.493C225.923 239.576 239.109 234.113 253.135 234.113C267.161 234.113 280.347 239.576 290.264 249.493C300.183 259.411 305.645 272.597 305.645 286.623C305.645 300.648 300.183 313.835 290.265 323.753Z" fill="#0038A8"/>
</g>
<defs>
<clipPath id="clip0_726_83">
<rect width="505" height="505" fill="white"/>
</clipPath>
</defs>
</svg>
