<svg width="50" height="50" viewBox="0 0 50 50" fill="none" xmlns="http://www.w3.org/2000/svg">
<path d="M39.9998 6.66675H9.99984C8.15817 6.66675 6.6665 8.15841 6.6665 10.0001V40.0001C6.6665 41.8418 8.15817 43.3334 9.99984 43.3334H39.9998C41.8415 43.3334 43.3332 41.8418 43.3332 40.0001V10.0001C43.3332 8.15841 41.8415 6.66675 39.9998 6.66675ZM18.2565 36.6667H13.3398V20.8467H18.2565V36.6667ZM15.7482 18.5851C14.1632 18.5851 12.8815 17.3001 12.8815 15.7184C12.8815 14.1367 14.1648 12.8534 15.7482 12.8534C17.3282 12.8534 18.6132 14.1384 18.6132 15.7184C18.6132 17.3001 17.3282 18.5851 15.7482 18.5851ZM36.6732 36.6667H31.7598V28.9734C31.7598 27.1384 31.7265 24.7784 29.2048 24.7784C26.6465 24.7784 26.2532 26.7768 26.2532 28.8401V36.6667H21.3398V20.8467H26.0565V23.0084H26.1232C26.7798 21.7651 28.3832 20.4534 30.7748 20.4534C35.7532 20.4534 36.6732 23.7301 36.6732 27.9901V36.6667Z" fill="white"/>
</svg>
