<svg width="69" height="47" viewBox="0 0 69 47" fill="none" xmlns="http://www.w3.org/2000/svg">
<path fill-rule="evenodd" clip-rule="evenodd" d="M13.4279 10.587C14.5114 10.3252 15.6189 10.1933 16.7298 10.194C25.5273 10.194 32.657 18.342 32.657 28.389C32.657 38.439 25.5273 46.587 16.7298 46.587C7.9323 46.587 0.799805 38.442 0.799805 28.389C0.799805 28.095 0.80543 27.798 0.819492 27.504H0.799805C0.799805 12.339 11.5998 0 24.8748 0V6.108C20.5689 6.108 16.5976 7.782 13.4279 10.587ZM49.0736 10.587C50.1367 10.329 51.2392 10.194 52.3698 10.194C61.1673 10.194 68.2998 18.342 68.2998 28.389C68.2998 38.439 61.1673 46.587 52.3698 46.587C43.5723 46.587 36.4426 38.442 36.4426 28.389C36.4426 28.095 36.4482 27.798 36.4623 27.504H36.4426C36.4426 12.339 47.2426 0 60.5176 0V6.108C56.2089 6.108 52.2432 7.782 49.0736 10.587Z" fill="#0038A8"/>
</svg>
